<svg xmlns="http://www.w3.org/2000/svg" xmlns:xlink="http://www.w3.org/1999/xlink" width="48" zoomAndPan="magnify" viewBox="0 0 36 36.000001" height="48" preserveAspectRatio="xMidYMid meet" version="1.0"><defs><clipPath id="402988f60c"><path d="M 0.488281 0 L 35.511719 0 L 35.511719 35.027344 L 0.488281 35.027344 Z M 0.488281 0 " clip-rule="nonzero"/></clipPath><clipPath id="73e04667b5"><path d="M 0.488281 9 L 4 9 L 4 13 L 0.488281 13 Z M 0.488281 9 " clip-rule="nonzero"/></clipPath><clipPath id="4e27395cd5"><path d="M 32 9 L 35.511719 9 L 35.511719 13 L 32 13 Z M 32 9 " clip-rule="nonzero"/></clipPath><clipPath id="6ef4477099"><path d="M 25 31 L 33 31 L 33 35.027344 L 25 35.027344 Z M 25 31 " clip-rule="nonzero"/></clipPath><clipPath id="c4c6068062"><path d="M 3 31 L 11 31 L 11 35.027344 L 3 35.027344 Z M 3 31 " clip-rule="nonzero"/></clipPath></defs><g clip-path="url(#402988f60c)"><path fill="#2e1b5b" d="M 32.328125 9.554688 L 22.777344 9.554688 L 22.777344 6.367188 L 19.59375 6.367188 L 19.59375 0 L 16.40625 0 L 16.40625 6.367188 L 13.222656 6.367188 L 13.222656 9.554688 L 0.488281 9.554688 L 0.488281 12.738281 L 3.671875 12.738281 L 3.671875 15.921875 L 6.855469 15.921875 L 6.855469 19.105469 L 10.039062 19.105469 L 10.039062 22.289062 L 6.855469 22.289062 L 6.855469 28.660156 L 3.671875 28.660156 L 3.671875 35.027344 L 10.039062 35.027344 L 10.039062 31.84375 L 16.40625 31.84375 L 16.40625 28.660156 L 19.59375 28.660156 L 19.59375 31.84375 L 25.960938 31.84375 L 25.960938 35.027344 L 32.328125 35.027344 L 32.328125 28.660156 L 29.144531 28.660156 L 29.144531 22.289062 L 25.960938 22.289062 L 25.960938 19.105469 L 29.144531 19.105469 L 29.144531 15.921875 L 32.328125 15.921875 L 32.328125 12.738281 L 35.511719 12.738281 L 35.511719 9.554688 Z M 32.328125 9.554688 " fill-opacity="1" fill-rule="nonzero"/></g><path fill="#ffc800" d="M 29.144531 19.105469 L 29.144531 12.738281 L 32.328125 12.738281 L 32.328125 9.554688 L 22.777344 9.554688 L 22.777344 6.367188 L 19.59375 6.367188 L 19.59375 0 L 16.40625 0 L 16.40625 6.367188 L 13.222656 6.367188 L 13.222656 9.554688 L 3.671875 9.554688 L 3.671875 12.738281 L 6.855469 12.738281 L 6.855469 19.105469 L 10.039062 19.105469 L 10.039062 22.289062 L 6.855469 22.289062 L 6.855469 28.660156 L 3.671875 28.660156 L 3.671875 31.84375 L 10.039062 31.84375 L 10.039062 28.660156 L 16.40625 28.660156 L 16.40625 25.472656 L 19.59375 25.472656 L 19.59375 28.660156 L 25.960938 28.660156 L 25.960938 31.84375 L 32.328125 31.84375 L 32.328125 28.660156 L 29.144531 28.660156 L 29.144531 22.289062 L 25.960938 22.289062 L 25.960938 19.105469 Z M 29.144531 19.105469 " fill-opacity="1" fill-rule="nonzero"/><path fill="#f99500" d="M 3.671875 9.554688 L 6.855469 9.554688 L 6.855469 12.738281 L 3.671875 12.738281 Z M 3.671875 9.554688 " fill-opacity="1" fill-rule="nonzero"/><path fill="#f99500" d="M 6.855469 12.738281 L 10.039062 12.738281 L 10.039062 15.921875 L 6.855469 15.921875 Z M 6.855469 12.738281 " fill-opacity="1" fill-rule="nonzero"/><path fill="#f99500" d="M 10.039062 15.921875 L 13.222656 15.921875 L 13.222656 19.105469 L 10.039062 19.105469 Z M 10.039062 15.921875 " fill-opacity="1" fill-rule="nonzero"/><path fill="#f99500" d="M 22.777344 15.921875 L 25.960938 15.921875 L 25.960938 19.105469 L 22.777344 19.105469 Z M 22.777344 15.921875 " fill-opacity="1" fill-rule="nonzero"/><path fill="#f99500" d="M 25.960938 12.738281 L 29.144531 12.738281 L 29.144531 15.921875 L 25.960938 15.921875 Z M 25.960938 12.738281 " fill-opacity="1" fill-rule="nonzero"/><path fill="#f99500" d="M 29.144531 9.554688 L 32.328125 9.554688 L 32.328125 12.738281 L 29.144531 12.738281 Z M 29.144531 9.554688 " fill-opacity="1" fill-rule="nonzero"/><path fill="#f99500" d="M 13.222656 25.472656 L 16.40625 25.472656 L 16.40625 28.660156 L 13.222656 28.660156 Z M 13.222656 25.472656 " fill-opacity="1" fill-rule="nonzero"/><path fill="#f99500" d="M 16.40625 22.289062 L 19.59375 22.289062 L 19.59375 25.472656 L 16.40625 25.472656 Z M 16.40625 22.289062 " fill-opacity="1" fill-rule="nonzero"/><path fill="#f99500" d="M 19.59375 25.472656 L 22.777344 25.472656 L 22.777344 28.660156 L 19.59375 28.660156 Z M 19.59375 25.472656 " fill-opacity="1" fill-rule="nonzero"/><path fill="#f99500" d="M 10.039062 25.472656 L 13.222656 25.472656 L 13.222656 28.660156 L 10.039062 28.660156 Z M 10.039062 25.472656 " fill-opacity="1" fill-rule="nonzero"/><path fill="#f99500" d="M 6.855469 28.660156 L 10.039062 28.660156 L 10.039062 31.84375 L 6.855469 31.84375 Z M 6.855469 28.660156 " fill-opacity="1" fill-rule="nonzero"/><path fill="#f99500" d="M 22.777344 25.472656 L 25.960938 25.472656 L 25.960938 28.660156 L 22.777344 28.660156 Z M 22.777344 25.472656 " fill-opacity="1" fill-rule="nonzero"/><path fill="#f99500" d="M 25.960938 28.660156 L 29.144531 28.660156 L 29.144531 31.84375 L 25.960938 31.84375 Z M 25.960938 28.660156 " fill-opacity="1" fill-rule="nonzero"/><path fill="#fde292" d="M 13.222656 22.289062 L 16.40625 22.289062 L 16.40625 25.472656 L 13.222656 25.472656 Z M 13.222656 22.289062 " fill-opacity="1" fill-rule="nonzero"/><path fill="#fde292" d="M 16.40625 19.105469 L 19.59375 19.105469 L 19.59375 22.289062 L 16.40625 22.289062 Z M 16.40625 19.105469 " fill-opacity="1" fill-rule="nonzero"/><path fill="#fde292" d="M 19.59375 22.289062 L 22.777344 22.289062 L 22.777344 25.472656 L 19.59375 25.472656 Z M 19.59375 22.289062 " fill-opacity="1" fill-rule="nonzero"/><path fill="#fde292" d="M 10.039062 12.738281 L 13.222656 12.738281 L 13.222656 15.921875 L 10.039062 15.921875 Z M 10.039062 12.738281 " fill-opacity="1" fill-rule="nonzero"/><path fill="#fde292" d="M 22.777344 12.738281 L 25.960938 12.738281 L 25.960938 15.921875 L 22.777344 15.921875 Z M 22.777344 12.738281 " fill-opacity="1" fill-rule="nonzero"/><path fill="#fde292" d="M 6.855469 9.554688 L 10.039062 9.554688 L 10.039062 12.738281 L 6.855469 12.738281 Z M 6.855469 9.554688 " fill-opacity="1" fill-rule="nonzero"/><path fill="#fde292" d="M 25.960938 9.554688 L 29.144531 9.554688 L 29.144531 12.738281 L 25.960938 12.738281 Z M 25.960938 9.554688 " fill-opacity="1" fill-rule="nonzero"/><path fill="#fde292" d="M 16.40625 3.183594 L 19.59375 3.183594 L 19.59375 9.554688 L 16.40625 9.554688 Z M 16.40625 3.183594 " fill-opacity="1" fill-rule="nonzero"/><path fill="#fffcd2" d="M 22.777344 12.738281 L 19.59375 12.738281 L 19.59375 9.554688 L 16.40625 9.554688 L 16.40625 12.738281 L 13.222656 12.738281 L 13.222656 15.921875 L 16.40625 15.921875 L 16.40625 19.105469 L 19.59375 19.105469 L 19.59375 15.921875 L 22.777344 15.921875 Z M 22.777344 12.738281 " fill-opacity="1" fill-rule="nonzero"/><path fill="#2e1b5b" d="M 16.40625 25.472656 L 19.59375 25.472656 L 19.59375 28.660156 L 16.40625 28.660156 Z M 16.40625 25.472656 " fill-opacity="1" fill-rule="nonzero"/><path fill="#2e1b5b" d="M 6.855469 15.921875 L 10.039062 15.921875 L 10.039062 19.105469 L 6.855469 19.105469 Z M 6.855469 15.921875 " fill-opacity="1" fill-rule="nonzero"/><path fill="#2e1b5b" d="M 3.671875 12.738281 L 6.855469 12.738281 L 6.855469 15.921875 L 3.671875 15.921875 Z M 3.671875 12.738281 " fill-opacity="1" fill-rule="nonzero"/><g clip-path="url(#73e04667b5)"><path fill="#2e1b5b" d="M 0.488281 9.554688 L 3.671875 9.554688 L 3.671875 12.738281 L 0.488281 12.738281 Z M 0.488281 9.554688 " fill-opacity="1" fill-rule="nonzero"/></g><path fill="#2e1b5b" d="M 10.039062 28.660156 L 16.40625 28.660156 L 16.40625 31.84375 L 10.039062 31.84375 Z M 10.039062 28.660156 " fill-opacity="1" fill-rule="nonzero"/><path fill="#2e1b5b" d="M 19.59375 28.660156 L 25.960938 28.660156 L 25.960938 31.84375 L 19.59375 31.84375 Z M 19.59375 28.660156 " fill-opacity="1" fill-rule="nonzero"/><path fill="#2e1b5b" d="M 25.960938 15.921875 L 29.144531 15.921875 L 29.144531 19.105469 L 25.960938 19.105469 Z M 25.960938 15.921875 " fill-opacity="1" fill-rule="nonzero"/><path fill="#2e1b5b" d="M 29.144531 12.738281 L 32.328125 12.738281 L 32.328125 15.921875 L 29.144531 15.921875 Z M 29.144531 12.738281 " fill-opacity="1" fill-rule="nonzero"/><g clip-path="url(#4e27395cd5)"><path fill="#2e1b5b" d="M 32.328125 9.554688 L 35.511719 9.554688 L 35.511719 12.738281 L 32.328125 12.738281 Z M 32.328125 9.554688 " fill-opacity="1" fill-rule="nonzero"/></g><g clip-path="url(#6ef4477099)"><path fill="#2e1b5b" d="M 25.960938 31.84375 L 32.328125 31.84375 L 32.328125 35.027344 L 25.960938 35.027344 Z M 25.960938 31.84375 " fill-opacity="1" fill-rule="nonzero"/></g><g clip-path="url(#c4c6068062)"><path fill="#2e1b5b" d="M 3.671875 31.84375 L 10.039062 31.84375 L 10.039062 35.027344 L 3.671875 35.027344 Z M 3.671875 31.84375 " fill-opacity="1" fill-rule="nonzero"/></g></svg>